<?xml version="1.0" encoding="utf-8"?>
<!-- Generator: Adobe Illustrator 25.2.0, SVG Export Plug-In . SVG Version: 6.00 Build 0)  -->
<svg version="1.1" id="Layer_1" xmlns="http://www.w3.org/2000/svg" xmlns:xlink="http://www.w3.org/1999/xlink" x="0px" y="0px"
	 viewBox="0 0 1621 912" style="enable-background:new 0 0 1621 912;" xml:space="preserve">
<style type="text/css">
	.st0{fill:url(#SVGID_1_);}
	.st1{display:none;}
	.st2{display:inline;fill:#F2ECFD;}
	.st3{display:inline;fill:#40BCF3;}
	.st4{fill:#002DB5;}
	.st5{fill:#F9D4D1;}
	.st6{fill:#FF8DA4;}
	.st7{fill:#222222;}
	.st8{fill:#2467A1;}
	.st9{fill:#FF7F99;}
	.st10{fill:#135D8C;}
	.st11{fill:#F2ECFD;}
	.st12{fill:none;stroke:#4A7444;stroke-miterlimit:10;}
</style>
<linearGradient id="SVGID_1_" gradientUnits="userSpaceOnUse" x1="807.395" y1="203.1453" x2="807.395" y2="763.6926">
	<stop  offset="0" style="stop-color:#E4F3F7"/>
	<stop  offset="1" style="stop-color:#FFFFFF"/>
</linearGradient>
<path class="st0" d="M440.42,777.84c0,0-121.63-87.25-104.11-210.48c17.52-123.23,91.13-153.75,85.87-306.38
	c-5.26-152.62,119.89-245.8,240.45-205.64c120.56,40.16,104.79,192.79,180.14,196c75.36,3.21,154.22-83.54,290.91-33.74
	s164.73,243.82,136.69,309.88c-28.04,66.06-38.55,250.36-38.55,250.36H440.42z"/>
<g class="st1">
	<ellipse class="st2" cx="814.62" cy="759.6" rx="306.05" ry="18.24"/>
	<polygon class="st3" points="563.2,538.87 581.67,757.36 707.79,757.36 707.79,538.87 	"/>
	<path class="st3" d="M730.28,553.57v187.14h25.75c0,0,17.17,15.45,24.89,17.17c7.73,1.72,236.92,0,236.92,0s35.2-11.16,32.62-40.35
		c0.13-13.73-10.3-25.75-10.3-25.75s27.47-4.29,29.19-32.62c0-14.59-12.02-26.61-12.02-26.61s29.19-16.31,29.19-36.91
		s-12.02-28.33-12.02-28.33s30.9-14.59,30.9-40.35c0-25.75-26.61-24.89-26.61-24.89H904.54l13.31-71.25c0,0,9.87-27.47,0-54.94
		c-9.87-27.47-19.31-59.23-37.34-62.66c-18.03-3.43-27.47,0.86-28.33,25.75c-0.86,24.89-0.86,62.66-0.86,62.66
		S780.93,544.13,730.28,553.57z"/>
</g>
<g>
	<path class="st4" d="M648.12,349.49c0,0-12.41-9.64-34.43,2.53c-19.24,10.63-17.22,37.98-14.18,58.74
		c3.04,20.76-26.58,22.03-18.74,43.29c7.85,21.27,40.49,37.98,78.6,24.05c38.11-13.93,35.84-37.22,24.44-48.61
		c-11.39-11.39-15.7-24.25-14.68-47.57C670.14,358.61,648.12,349.49,648.12,349.49z"/>
	<path class="st5" d="M610.63,377.45c0,0-1.52,18.67,6.35,30.83c7.87,12.16,30.52,12.4,38.86-8.11c3.68-15.49,3.53-20.31,3.53-20.31
		s-11.92-2.7-15.11-16.86C644.25,363,635.24,381.93,610.63,377.45z"/>
	<path class="st5" d="M610.62,384.2c0,0-1.28-2.38-4.14-2.26c-2.86,0.12-6.24,8.33,5.64,13.11L610.62,384.2z"/>
	<path class="st5" d="M658.52,384.2c0,0,1.28-2.38,4.14-2.26c2.86,0.12,6.24,8.33-5.64,13.11L658.52,384.2z"/>
	<path class="st6" d="M626.23,424.37c0,0-9.51-0.19-20.14,2.09c-10.63,2.28-24.16,30.3-24.16,30.3s4.03,8.44,18.46,10.34l3.35-5.7
		v30.38c0,0,33.87,19.75,66.53,0v-33.04l3.95,8.88c0,0,11.43,0.14,16.56-7.48c0,0-8.61-23.3-18.86-29.75
		c-4.82-3.04-16.84-6.78-27.66-6.02C633.43,425.13,626.23,424.37,626.23,424.37z"/>
	<path class="st5" d="M626.23,415.41v8.96c0,0,1.22,7.41,8.77,8.17c7.55,0.76,9.26-7.22,9.26-7.22v-11.48
		C644.25,413.84,635.9,418.72,626.23,415.41z"/>
	<path class="st5" d="M584.56,460.14l-9.37,26.08h18.48l6.71-19.12C600.39,467.1,589.61,465.26,584.56,460.14z"/>
	<rect x="597.73" y="467.22" class="st7" width="77.22" height="42.53"/>
	<path class="st5" d="M690.78,460.14l9.37,26.08h-18.48l-6.71-19.12C674.95,467.1,686.98,466.21,690.78,460.14z"/>
	<path class="st8" d="M667.86,527.48c0,0-34.94-25.57-55.95-33.67c-21.01-8.1-32.66-12.91-41.02-7.6
		c-8.36,5.32-8.1,25.82,27.85,38.74c35.95,12.91,65.19,12.66,65.19,12.66L667.86,527.48z"/>
	<path class="st7" d="M702.8,528.11l-34.94-0.63l-3.92,10.13c0,0,24.81,1.77,32.41-1.27C703.94,533.3,702.8,528.11,702.8,528.11z"/>
	<path class="st8" d="M603.12,527.48c0,0,34.94-25.57,55.95-33.67c21.01-8.1,32.66-12.91,41.02-7.6c8.36,5.32,8.1,25.82-27.85,38.74
		c-35.95,12.91-65.19,12.66-65.19,12.66L603.12,527.48z"/>
	<path class="st7" d="M568.19,528.11l34.94-0.63l3.92,10.13c0,0-24.81,1.77-32.41-1.27C567.05,533.3,568.19,528.11,568.19,528.11z"
		/>
</g>
<g>
	<path class="st5" d="M977.34,397.46l2.81-7.63c0,0,30.93,12.05,30.12-28.52c0,0-6.43,5.62-25.3,2.41c0,0-2.41-7.23-7.63-8.43
		c-5.22-1.2-10.04,8.03-3.61,17.27l-6.83,17.27C966.9,389.83,974.53,392.65,977.34,397.46z"/>
	<path class="st6" d="M938.38,472.97c0,0-2.01-51.81,11.25-67.47c13.25-15.66,17.27-15.66,17.27-15.66s31.74,6.43,21.7,77.92
		C988.6,467.75,973.33,478.19,938.38,472.97z"/>
	<path class="st9" d="M971.72,407.16c0,0-11.25-5.22-15.26,4.42c-4.02,9.64,11.65,44.58,18.07,49c6.43,4.42,35.76,9.64,35.76,9.64
		h13.24v-7.23l-34.93-14.86C988.6,448.13,982.97,424.43,971.72,407.16z"/>
	<path class="st8" d="M938.38,472.97c0,0-2.81,20.48,8.43,26.51c11.25,6.02,67.88,2.01,67.88,2.01l-15.66,65.87h9.24l40.16-92.92
		l-59.84-6.68C988.6,467.75,972.12,478.19,938.38,472.97z"/>
	<polygon class="st10" points="1060.88,567.36 1039.8,494.4 1048.43,474.43 1060.88,474.43 1071.33,567.36 	"/>
	<polygon class="st7" points="999.03,567.36 996.22,577 1019.11,589.05 1008.27,567.36 	"/>
	<polygon class="st7" points="1060.8,567.36 1057.99,577 1080.89,589.05 1070.04,567.36 	"/>
	<path class="st5" d="M1023.53,463.89c0,0,4.77-1.05,8.69-1.96c3.92-0.9,16.88,7.05,10.39,7.88c-1.96,0.25-19.08,0.4-19.08,0.4
		V463.89z"/>
	<path class="st4" d="M1019.92,351.68c0,0,4.94-3.63,3.61-11.25c-1.1-6.33-7.63-6.63-7.63-6.63s-0.65-10.1-10.04-11.04
		c-7-0.7-10.04,3.41-10.04,3.41s-6.63-7.83-16.07-6.23s-10.64,8.03-10.64,8.03s-11.85-1.81-15.66,6.63c-3.82,8.43,0,15.46,0,15.46
		s-4.42,5.82-3.61,12.25c0.8,6.43,7.63,11.25,7.63,11.25s0.88,10.85,11.79,10.32l4.48-11.33c-6.43-9.24-1.61-18.48,3.61-17.27
		c5.22,1.2,7.63,8.43,7.63,8.43c18.88,3.21,25.3-2.41,25.3-2.41c0.05,2.39-0.02,4.59-0.18,6.63c0,0,0.01,0,0.01,0
		s7.61,1.6,10.62-5.62C1023.73,355.09,1019.92,351.68,1019.92,351.68z"/>
	<rect x="998.03" y="470.22" class="st7" width="90.37" height="4.22"/>
	<polygon class="st7" points="1039.8,470.62 1048.43,423.83 1096.03,423.83 1088.4,470.22 	"/>
</g>
<g>
	<path class="st11" d="M785.2,855.24c0,6.74-73.22,12.21-163.55,12.21s-163.55-5.47-163.55-12.21c0-6.74,73.22-12.21,163.55-12.21
		S785.2,848.5,785.2,855.24z"/>
	<path class="st6" d="M609.12,810.85c0,0,43.07-30.75,61.45-23.7c18.38,7.05,27.04,16.07,30.39,23.7
		c3.35,7.63,5.76,30.93-52.08,41.37s-65.87,4.02-65.87,4.02S582.36,826.82,609.12,810.85z"/>
	<path class="st4" d="M679.04,777.84l3.58-3.94c0,0-1.61-6.83-1.2-12.45s3.21-11.25,7.63-9.24c4.42,2.01,5.62,6.43,4.42,12.05
		c0,0,28.11,6.02,35.75-5.62c0,0,1.55,4.54,2.01,10.44l0,0c0,0,6.42-16.47-2.01-28.11c-8.43-11.65-29.72-16.87-46.19-6.43
		C666.55,744.98,668.22,768.12,679.04,777.84L679.04,777.84z"/>
	<path class="st5" d="M729.21,758.64c0,0,4.82,14.06,0,24.9c-4.82,10.84-18.07,16.47-39.36,8.03c0,0-1.61,4.02-2.41,9.24
		c-0.8,5.22-17.27,5.62-16.87-13.66l12.05-13.25c0,0-1.61-6.83-1.2-12.45c0.4-5.62,3.21-11.25,7.63-9.24
		c4.42,2.01,5.62,6.43,4.42,12.05C693.46,764.26,721.58,770.28,729.21,758.64z"/>
	<circle class="st4" cx="694.47" cy="728.31" r="13.05"/>
	<path class="st9" d="M642.7,803.88c0,0,7.97,9.18,27.86,11.28c0,0-0.6-10.54-5.11-18.07C660.93,789.56,648.58,791.39,642.7,803.88z
		"/>
	<path class="st9" d="M700.95,810.85c0,0,5.16,9.44,5.16,13.96s0,4.52,0,4.52h-7.43C698.68,829.32,703.63,820.39,700.95,810.85z"/>
	<path class="st5" d="M644.41,805.47c0,0,4.17,41.03,13.51,50.97c4.82,3.61,57.53,1.76,57.53,1.76v-9.89l-41.57-8.74l-5.13-24.61
		C668.75,814.95,654.4,812.94,644.41,805.47z"/>
	<polygon class="st7" points="724.86,844.36 745.14,822.15 760.75,822.15 742.8,844.36 	"/>
	<polygon class="st5" points="704.61,829.32 706.11,840.77 747.98,850.41 747.98,856.74 688.79,856.74 685.81,840.37 698.68,829.32 
			"/>
	<path class="st5" d="M715.45,849.81c0,0,6.02-6.63,11.15-8.43c5.12-1.81,6.96,1.66,6.96,1.66s9-8.28,12.01-7.98
		c3.01,0.3,18.07,21.89-30.12,23.14V849.81z"/>
	<path class="st5" d="M747.98,851.61c0,0,7.83-4.13,12.65-5c4.82-0.87,14.46,7.71,12.65,10.12h-25.3V851.61z"/>
	<path class="st8" d="M583.01,856.23H478.99l-30.52-104.44l9.64-2.4l39.76,68.28l78.32-2.51c0,0,19.17-9.09,30.67-2.89
		C606.85,812.28,585.01,825,583.01,856.23z"/>
	<polygon class="st10" points="534.81,738.15 490.75,805.47 497.86,817.68 521.98,816.9 544.45,738.15 	"/>
	<polygon class="st7" points="458.1,749.4 454.09,738.15 421.95,741.37 448.46,751.79 	"/>
	<polygon class="st7" points="544.45,738.15 546.46,725.7 519.31,714.07 534.81,738.15 	"/>
</g>
<g>
	<circle class="st12" cx="498.69" cy="383.91" r="7.94"/>
	<circle class="st12" cx="1133.72" cy="667.07" r="7.94"/>
	<circle class="st12" cx="390.67" cy="613.19" r="7.94"/>
	<circle class="st12" cx="758.6" cy="225.05" r="7.94"/>
	<circle class="st12" cx="554.4" cy="145.88" r="7.94"/>
	<circle class="st12" cx="1187.51" cy="209.17" r="7.94"/>
	<circle class="st12" cx="1280.2" cy="413.84" r="7.94"/>
	<g>
		<line class="st12" x1="572.09" y1="251.71" x2="572.09" y2="275.87"/>
		<line class="st12" x1="560.01" y1="263.79" x2="584.17" y2="263.79"/>
	</g>
	<g>
		<line class="st12" x1="1272.26" y1="647.05" x2="1272.26" y2="671.21"/>
		<line class="st12" x1="1260.18" y1="659.13" x2="1284.34" y2="659.13"/>
	</g>
	<g>
		<line class="st12" x1="1167.49" y1="385.38" x2="1167.49" y2="409.55"/>
		<line class="st12" x1="1155.41" y1="397.46" x2="1179.57" y2="397.46"/>
	</g>
	<g>
		<line class="st12" x1="1010.29" y1="189.15" x2="1010.29" y2="213.31"/>
		<line class="st12" x1="998.21" y1="201.23" x2="1022.37" y2="201.23"/>
	</g>
	<g>
		<line class="st12" x1="346.67" y1="399.84" x2="346.67" y2="424"/>
		<line class="st12" x1="334.59" y1="411.92" x2="358.75" y2="411.92"/>
	</g>
</g>
</svg>
